# xmcd
#
# Track frame offsets: 
#        150
#        11585
#        21062
#        30872
#        43612
#        54662
#        67512
#        75832
#        86360
#        96967
#        108292
#        120082
#        131467
#        143265
#        154490
#        163417
#        173612
#        187275
#        197420
#        209917
#        220060
#        230050
#        238787
#        250092
#
# Disc length: 3484 seconds
#
# Revision: 9
# Processed by: cddbd v1.5.2PL0 Copyright (c) Steve Scherf et al.
# Submitted via: ExactAudioCopy v1.0b1
#
DISCID=330d9a18
DTITLE=Various Artist - Country U.S.A. Vol. 7 1958
DYEAR=1989
DGENRE=Country
TTITLE0=Don Gibson - Oh Lonesome Me
TTITLE1=Webb Pierce - Tupelo County Jail
TTITLE2=Marty Robbins - Just Married
TTITLE3=Ray Price - Invitation To The Blues
TTITLE4=Charlie Walker - Pick Me Up On Your Way Down
TTITLE5=Elvis Presley - Don't
TTITLE6=Johnny Cash - Guess Things Happen That Way
TTITLE7=George Jones - Treasure Of Love
TTITLE8=Everly Brothers - All I Have To Do Is Dream
TTITLE9=Kitty Wells - She's No Angel
TTITLE10=Don Gibson - I Can't Stop Loving You
TTITLE11=Hank Thompson - Squaws Along The Yukon
TTITLE12=Lefty Frizzell - Cigarettes And Coffee Blues
TTITLE13=Ernest Tubb - Half A Mind
TTITLE14=Faron Young - Alone With You
TTITLE15=Jim Reeves - Blue Boy
TTITLE16=Ray Price - City Lights
TTITLE17=Conway Twitty - It's Only Make Believe
TTITLE18=Louvin Brothers - My Baby's Gone
TTITLE19=Everly Brothers - Bird Dog
TTITLE20=Johnny Cash - Ballad Of A Teenage Queen
TTITLE21=Don Gibson - Blue Blue Day
TTITLE22=Stonewall Jackson - Life To Go
TTITLE23=Hank Locklin - Send Me The Pillow You Dream On
EXTD=
EXTT0=
EXTT1=
EXTT2=
EXTT3=
EXTT4=
EXTT5=
EXTT6=
EXTT7=
EXTT8=
EXTT9=
EXTT10=
EXTT11=
EXTT12=
EXTT13=
EXTT14=
EXTT15=
EXTT16=
EXTT17=
EXTT18=
EXTT19=
EXTT20=
EXTT21=
EXTT22=
EXTT23=
PLAYORDER=
